pedal_clip_forces_x_-0.1_y_-0.06.mot
version=1
nRows=167
nColumns=4
inDegrees=yes
endheader
time	PedalClip_calcn_r_Fx	PedalClip_calcn_r_Fy	PedalClip_calcn_r_Fz
0.23356558	-210.193465686102	307.600810118928	0
0.233728	-210.680708979021	308.451108951519	0
0.23389059	-211.167864678109	309.301852430492	0
0.23405332	-211.654745442886	310.15274115794	0
0.23421622	-212.14122171038	311.003569000062	0
0.23437926	-212.627116544468	311.854042501227	0
0.23454251	-213.112166554338	312.703692212988	0
0.23470586	-213.596113920949	313.552039114625	0
0.23486948	-214.078804643678	314.398789529923	0
0.23503312	-214.560204753269	315.243853322344	0
0.23519718	-215.040325557509	316.087215254793	0
0.23536107	-215.519142977625	316.92879050448	0
0.23552567	-215.996563101455	317.768354486458	0
0.23568969	-216.472476465239	318.60565326604	0
0.23585506	-216.946819470784	319.440534420796	0
0.23601895	-217.419584626065	320.272951787124	0
0.23618558	-217.89077059319	321.10287059083	0
0.2363489	-218.360323777326	321.930158934529	0
0.23651777	-218.828126332478	322.754563838619	0
0.23667987	-219.294037644456	323.575797860206	0
0.23685295	-219.75794087064	324.393634417016	0
0.23701305	-220.219732583597	325.207875794312	0
0.2371946	-220.679283737328	326.018279111369	0
0.23735221	-221.13640445413	326.824494368226	0
0.23755214	-221.590860317892	327.626097510524	0
0.23770757	-222.042411537212	328.422666147961	0
0.23796078	-222.490836946996	329.213823497568	0
0.2383119	-222.935902359648	329.999173427603	0
0.23838051	-223.377337011955	330.778256413774	0
0.23853474	-223.814840581756	331.550559079209	0
0.23880652	-224.248150226634	332.315638651248	0
0.2388337	-224.677066111432	333.073166859522	0
0.23890209	-225.101419060255	333.822870011281	0
0.2390338	-225.521004239488	334.564416151808	0
0.23909377	-225.935587077036	335.297418823576	0
0.23927574	-226.344980969258	336.021554304163	0
0.23947365	-226.749160535065	336.736767694064	0
0.23949345	-227.148240624646	337.443239265532	0
0.23956975	-227.542366592504	338.141196639767	0
0.23969908	-227.931620349412	338.830764501488	0
0.23976204	-228.316066862308	339.512033559718	0
0.23993139	-228.695866807076	340.185231873945	0
0.24013291	-229.071350264474	340.850885431315	0
0.24015306	-229.442922767332	341.509664205244	0
0.24022943	-229.810911680183	342.162119545543	0
0.24035908	-230.175505367829	342.808581153421	0
0.2404233	-230.536832000691	343.449278194236	0
0.24058932	-230.895074550641	344.084519469545	0
0.24079458	-231.250536461204	344.714836419127	0
0.24081511	-231.603539466748	345.340809161884	0
0.24089023	-231.95429698329	345.962844514177	0
0.2410196	-232.302874802148	346.581107427603	0
0.24108236	-232.649280635503	347.195660086552	0
0.24125432	-232.993570441438	347.806626411266	0
0.24145575	-233.335874417645	348.414272147234	0
0.2414759	-233.676318526071	349.018871234814	0
0.24155231	-234.014944932451	349.62056500089	0
0.24168208	-234.351712163506	350.219355689706	0
0.24174697	-234.686575526562	350.815233948241	0
0.2419125	-235.019575529123	351.408314436776	0
0.24212057	-235.350885488403	351.998932874424	0
0.24214138	-235.680767531323	352.587564078783	0
0.2422156	-236.009527421856	353.174740053463	0
0.24234472	-236.33749564713	353.761013294345	0
0.24240688	-236.665054167858	354.346998782989	0
0.24258441	-236.992631945274	354.933366351232	0
0.24278443	-237.32065584007	355.520795845055	0
0.24280443	-237.649455797401	356.10983346654	0
0.24288121	-237.979209699577	356.700804126069	0
0.24301147	-238.309920659412	357.293757770127	0
0.2430766	-238.641463667802	357.88852453876	0
0.24324213	-238.973645474341	358.484791149964	0
0.24345327	-239.306282340109	359.082234413241	0
0.24347438	-239.639230981623	359.680578426489	0
0.24354753	-239.972410067275	360.279646466104	0
0.24367642	-240.305791881091	360.879354042838	0
0.24373764	-240.63940041426	361.479715503684	0
0.24392436	-240.973292871686	362.080813143353	0
0.24412317	-241.307537608798	362.682759750619	0
0.24414305	-241.642189037159	363.285651093802	0
0.24421978	-241.977272297117	363.88954111329	0
0.24435006	-242.312734063977	364.494348940011	0
0.2444152	-242.648458407489	365.099873753162	0
0.24458214	-242.984390515169	365.705994428249	0
0.244795	-243.320548175857	366.31272232934	0
0.24481629	-243.656969353087	366.920117003671	0
0.24488895	-243.993668764664	367.528200097119	0
0.24501757	-244.330617458178	368.136901005091	0
0.24507884	-244.667751101912	368.746079083218	0
0.24526943	-245.005019473674	369.355625635639	0
0.24546879	-245.342437096676	369.965559570264	0
0.24548873	-245.680047725064	370.575966672842	0
0.24556533	-246.017885400514	371.186923693329	0
0.24569604	-246.355934030573	371.798410749776	0
0.2457614	-246.694141631929	372.410340507907	0
0.24592936	-247.032457894698	373.022622333138	0
0.24614482	-247.370894572358	373.635282818998	0
0.24616636	-247.709506119953	374.248429914593	0
0.24623828	-248.048365621164	374.862207066803	0
0.24636665	-248.387507448508	375.476685214755	0
0.24642754	-248.726935494947	376.091878087001	0
0.24662652	-249.066629657932	376.707754457496	0
0.24682677	-249.406621333986	377.324378336128	0
0.2468468	-249.746987048281	377.941892045361	0
0.24692287	-250.087831620409	378.560485790956	0
0.24705339	-250.429251501791	379.180331136176	0
0.24711865	-250.771324353444	379.801562874075	0
0.24728962	-251.114079993719	380.424228343485	0
0.24750574	-251.457502551729	381.048305581555	0
0.24752736	-251.801607882917	381.673833397731	0
0.24759924	-252.146451081255	382.300915733695	0
0.24772752	-252.492089749089	382.929656287181	0
0.24778918	-252.838550439518	383.560098266329	0
0.24798714	-253.185763413767	384.192107341309	0
0.24818835	-253.53361181459	384.825471717922	0
0.24820847	-253.881978363684	385.459975890207	0
0.2482848	-254.230798383751	386.095484527554	0
0.24841682	-254.580086005184	386.73198660368	0
0.24848283	-254.929918814756	387.369587938191	0
0.24865308	-255.280387847209	388.008429445849	0
0.24887496	-255.631587900421	388.648680669442	0
0.24889715	-255.983587965693	389.290470264455	0
0.24896726	-256.336439697392	389.933886654813	0
0.2490952	-256.690204437078	390.579026857007	0
0.24915482	-257.04498822508	391.226071950062	0
0.24938629	-257.400893021086	391.875205692545	0
0.24961589	-257.758016857073	392.526624485383	0
0.24963885	-258.116461545713	393.1805362117	0
0.24970798	-258.476322823964	393.837124061721	0
0.24983595	-258.837651130762	394.496478638596	0
0.2498953	-259.200461704767	395.158620652373	0
0.25013925	-259.564740143293	395.823519193247	0
0.25046059	-259.930504325198	396.491223117228	0
0.25049273	-260.297808304205	397.161851385219	0
0.25055529	-260.666770642515	397.83563236626	0
0.25069377	-261.037523589254	398.512812045039	0
0.25075641	-261.410151389947	399.19354850956	0
0.25094906	-261.78467152178	399.877882993794	0
0.25116173	-262.161094187462	400.565862827059	0
0.25118299	-262.539459085811	401.257593367516	0
0.2512555	-262.919879448273	401.953305764813	0
0.25138455	-263.302499979203	402.653276383532	0
0.25144867	-263.687428683685	403.357701717222	0
0.25164327	-264.074715824709	404.066663349904	0
0.2518517	-264.464374415288	404.780182104569	0
0.25187255	-264.856394301286	405.498251078627	0
0.25194792	-265.250763760992	406.22087138425	0
0.25208242	-265.647471671349	406.948054928371	0
0.25214967	-266.046524120674	407.679836426627	0
0.25232448	-266.447926856473	408.41623240272	0
0.25255686	-266.851717917868	409.157316319804	0
0.2525801	-267.257959224769	409.90320845371	0
0.25264749	-267.66671354771	410.654044911906	0
0.25277505	-268.077961222101	411.409823537445	0
0.25286497	-268.491527937191	412.170259926977	0
0.25299972	-268.907154281168	412.934894448581	0
0.25328357	-269.324609933223	413.703301432673	0
0.25347738	-269.743718492544	414.475147179058	0
0.25373682	-270.164365467953	415.250213842942	0
0.25376807	-270.586491551667	416.028391469122	0
0.25384727	-271.010068119265	416.809630976211	0
0.25409544	-271.435056706318	417.59386536067	0
0.2541547	-271.861438542307	418.381070076176	0
0.25434574	-272.289155271386	419.171164072885	0
0.25455653	-272.718095860331	419.963988708772	0
0.25481838	-273.148098510138	420.759286728457	0
0.25505697	-273.578998794774	421.556774613646	0
